<svg aria-hidden="true" style="position: absolute; width: 0; height: 0; overflow: hidden;" version="1.1" xmlns="http://www.w3.org/2000/svg" xmlns:xlink="http://www.w3.org/1999/xlink">
<defs>

<symbol id="icon-flchocolate-bar" viewBox="0 0 32 32">
<title>flchocolate-bar</title>
<path d="M13.822 2.413l7.527 7.536 0.080-0.080c0.158-0.154 0.369-0.242 0.589-0.244s0.434 0.080 0.595 0.231l0.873 0.873c0.305 0.305 0.315 0.77 0.083 1.094l-0.004 0.007-0.143 0.192 6.16 6.16c0.55 0.55 0.55 1.43 0 1.98l-9.43 9.43c-0.55 0.55-1.43 0.55-1.98 0l-4.447-4.447c-0.074 0.093-0.167 0.169-0.272 0.224s-0.221 0.086-0.34 0.093c-0.119 0.007-0.237-0.012-0.348-0.054s-0.212-0.108-0.296-0.192l-2.6-2.6c-0.154-0.158-0.242-0.369-0.244-0.589s0.080-0.434 0.231-0.595l0.006-0.007 0.077-0.076-7.527-7.527c-0.55-0.55-0.55-1.43 0-1.98l9.43-9.43c0.55-0.55 1.43-0.55 1.98 0v0.001zM20.404 10.893l-1.756-1.755c-0.055-0.057-0.121-0.102-0.194-0.133s-0.151-0.047-0.231-0.047-0.158 0.016-0.231 0.047c-0.073 0.031-0.139 0.076-0.194 0.133l-3.58 3.58c-0.057 0.056-0.102 0.123-0.133 0.197s-0.046 0.153-0.046 0.233 0.016 0.159 0.046 0.233c0.031 0.074 0.076 0.141 0.133 0.197l1.749 1.749 0.61-0.61-1.565-1.565 3.21-3.22 1.569 1.574 0.613-0.613zM15.329 15.966l-1.754-1.754c-0.055-0.057-0.121-0.102-0.194-0.133s-0.152-0.047-0.231-0.047-0.158 0.016-0.231 0.047c-0.073 0.031-0.139 0.076-0.194 0.133l-3.59 3.59c-0.24 0.23-0.24 0.61 0 0.85l1.752 1.752 0.616-0.616-1.57-1.564 3.22-3.21 1.564 1.563 0.612-0.611zM8.822 8.194l3.58 3.58c0.24 0.24 0.62 0.24 0.85-0.010l3.58-3.58c0.057-0.054 0.102-0.119 0.133-0.192s0.047-0.15 0.047-0.228h0.010c0-0.15-0.060-0.31-0.18-0.43l-3.58-3.58c-0.056-0.057-0.123-0.102-0.197-0.133s-0.153-0.047-0.233-0.047c-0.080 0-0.159 0.016-0.233 0.047s-0.141 0.076-0.197 0.133l-3.58 3.59c-0.24 0.23-0.24 0.61 0 0.85zM3.752 13.264l3.58 3.58c0.24 0.24 0.62 0.24 0.85 0l3.58-3.58c0.058-0.055 0.104-0.122 0.135-0.196s0.046-0.154 0.045-0.234h0.010c0-0.16-0.060-0.31-0.18-0.43l-3.58-3.58c-0.055-0.057-0.121-0.102-0.194-0.133s-0.151-0.047-0.231-0.047c-0.079 0-0.158 0.016-0.231 0.047s-0.139 0.076-0.194 0.133l-3.59 3.59c-0.24 0.23-0.24 0.61 0 0.85zM10.685 22.017l2.362 2.363 9.636-13.040-0.655-0.655-11.343 11.332z"></path>
<path d="M13.822 2.413l7.527 7.536 0.080-0.080c0.158-0.154 0.369-0.242 0.589-0.244s0.434 0.080 0.595 0.231l0.873 0.873c0.305 0.305 0.315 0.77 0.083 1.094l-0.004 0.007-0.143 0.192 6.16 6.16c0.55 0.55 0.55 1.43 0 1.98l-9.43 9.43c-0.55 0.55-1.43 0.55-1.98 0l-4.447-4.447c-0.074 0.093-0.167 0.169-0.272 0.224s-0.221 0.086-0.34 0.093c-0.119 0.007-0.237-0.012-0.348-0.054s-0.212-0.108-0.296-0.192l-2.6-2.6c-0.154-0.158-0.242-0.369-0.244-0.589s0.080-0.434 0.231-0.595l0.006-0.007 0.077-0.076-7.527-7.527c-0.55-0.55-0.55-1.43 0-1.98l9.43-9.43c0.55-0.55 1.43-0.55 1.98 0v0.001zM20.404 10.893l-1.756-1.755c-0.055-0.057-0.121-0.102-0.194-0.133s-0.151-0.047-0.231-0.047-0.158 0.016-0.231 0.047c-0.073 0.031-0.139 0.076-0.194 0.133l-3.58 3.58c-0.057 0.056-0.102 0.123-0.133 0.197s-0.046 0.153-0.046 0.233 0.016 0.159 0.046 0.233c0.031 0.074 0.076 0.141 0.133 0.197l1.749 1.749 0.61-0.61-1.565-1.565 3.21-3.22 1.569 1.574 0.613-0.613zM15.329 15.966l-1.754-1.754c-0.055-0.057-0.121-0.102-0.194-0.133s-0.152-0.047-0.231-0.047-0.158 0.016-0.231 0.047c-0.073 0.031-0.139 0.076-0.194 0.133l-3.59 3.59c-0.24 0.23-0.24 0.61 0 0.85l1.752 1.752 0.616-0.616-1.57-1.564 3.22-3.21 1.564 1.563 0.612-0.611zM8.822 8.194l3.58 3.58c0.24 0.24 0.62 0.24 0.85-0.010l3.58-3.58c0.057-0.054 0.102-0.119 0.133-0.192s0.047-0.15 0.047-0.228h0.010c0-0.15-0.060-0.31-0.18-0.43l-3.58-3.58c-0.056-0.057-0.123-0.102-0.197-0.133s-0.153-0.047-0.233-0.047c-0.080 0-0.159 0.016-0.233 0.047s-0.141 0.076-0.197 0.133l-3.58 3.59c-0.24 0.23-0.24 0.61 0 0.85zM3.752 13.264l3.58 3.58c0.24 0.24 0.62 0.24 0.85 0l3.58-3.58c0.058-0.055 0.104-0.122 0.135-0.196s0.046-0.154 0.045-0.234h0.010c0-0.16-0.060-0.31-0.18-0.43l-3.58-3.58c-0.055-0.057-0.121-0.102-0.194-0.133s-0.151-0.047-0.231-0.047c-0.079 0-0.158 0.016-0.231 0.047s-0.139 0.076-0.194 0.133l-3.59 3.59c-0.24 0.23-0.24 0.61 0 0.85zM10.685 22.017l2.362 2.363 9.636-13.040-0.655-0.655-11.343 11.332z"></path>
</symbol>

<symbol id="icon-Coin" viewBox="0 0 32 32">
<title>Coin</title>
<path d="M16 2.667c-7.333 0-13.333 6-13.333 13.333s6 13.333 13.333 13.333 13.333-6 13.333-13.333c0-7.333-6-13.333-13.333-13.333zM16 26.667c-5.867 0-10.667-4.8-10.667-10.667s4.8-10.667 10.667-10.667 10.667 4.8 10.667 10.667c0 5.867-4.8 10.667-10.667 10.667z"></path>
<path d="M17.733 14.667h-3.467c-0.667 0-1.2-0.533-1.2-1.2s0.533-1.2 1.2-1.2h4.933c0.8 0 1.333-0.533 1.333-1.333s-0.533-1.333-1.333-1.333h-1.867v-1.2c0-0.8-0.533-1.333-1.333-1.333s-1.333 0.533-1.333 1.333v1.2h-0.4c-2.133 0-3.867 1.733-3.867 3.867s1.733 3.867 3.867 3.867h3.333c0.667 0 1.2 0.533 1.2 1.2s-0.533 1.2-1.2 1.2h-4.933c-0.8 0-1.333 0.533-1.333 1.333s0.533 1.333 1.333 1.333h2v1.2c0 0.8 0.533 1.333 1.333 1.333s1.333-0.533 1.333-1.333v-1.2h0.4c2.133 0 3.867-1.733 3.867-3.867s-1.733-3.867-3.867-3.867z"></path>
</symbol>

<symbol id="icon-spoon" viewBox="0 0 32 32">
<title>spoon</title>
<path d="M15.451 14.106c-0.783-0.95-1.177-2.116-1.177-3.282 0-4.324 5.181-8.642 10.362-8.642 2.86 0 5.181 2.321 5.181 5.182 0 5.182-4.318 10.364-8.646 10.364-1.166 0-2.331-0.394-3.281-1.177l-12.758 12.761c-0.675 0.675-1.77 0.675-2.445 0s-0.675-1.771 0-2.445l12.764-12.761z"></path>
</symbol>

<symbol id="icon-facebook-ch-1" viewBox="0 0 32 32">
<path stroke-linejoin="round" stroke-linecap="round" stroke-miterlimit="4" stroke-width="2" d="M24 2.667h-4c-3.682 0-6.667 2.985-6.667 6.667v0 4h-4v5.333h4v10.667h5.333v-10.667h4l1.333-5.333h-5.333v-4c0-0.736 0.597-1.333 1.333-1.333v0h4v-5.333z"></path>
</symbol>

<symbol id="icon-instagram-ch-1" viewBox="0 0 32 32">
<path stroke-linejoin="round" stroke-linecap="round" stroke-miterlimit="4" stroke-width="2" d="M22.667 2.667h-13.333c-3.682 0-6.667 2.985-6.667 6.667v0 13.333c0 3.682 2.985 6.667 6.667 6.667v0h13.333c3.682 0 6.667-2.985 6.667-6.667v0-13.333c0-3.682-2.985-6.667-6.667-6.667v0z"></path>
<path stroke-linejoin="round" stroke-linecap="round" stroke-miterlimit="4" stroke-width="2" d="M21.333 15.16c0.037 0.235 0.058 0.506 0.058 0.783 0 2.946-2.388 5.334-5.334 5.334-2.67 0-4.881-1.961-5.272-4.521l-0.004-0.030c-0.037-0.235-0.058-0.506-0.058-0.783 0-2.946 2.388-5.334 5.334-5.334 2.67 0 4.881 1.961 5.272 4.521l0.004 0.030z"></path>
<path stroke-linejoin="round" stroke-linecap="round" stroke-miterlimit="4" stroke-width="2" d="M21.333 15.16c0.037 0.235 0.058 0.506 0.058 0.783 0 2.946-2.388 5.334-5.334 5.334-2.67 0-4.881-1.961-5.272-4.521l-0.004-0.030c-0.037-0.235-0.058-0.506-0.058-0.783 0-2.946 2.388-5.334 5.334-5.334 2.67 0 4.881 1.961 5.272 4.521l0.004 0.030zM23.333 8.667h0.013M23.333 8.667h0.013"></path>
</symbol>

<symbol id="icon-twitter-ch-1" viewBox="0 0 32 32">
<path stroke-linejoin="round" stroke-linecap="round" stroke-miterlimit="4" stroke-width="2" d="M30.667 4c-1.2 0.856-2.591 1.552-4.084 2.013l-0.103 0.027c-1.101-1.261-2.712-2.053-4.507-2.053-3.299 0-5.973 2.674-5.973 5.973 0 0.028 0 0.056 0.001 0.084l-0-0.004v1.333c-0.109 0.003-0.238 0.005-0.367 0.005-2.331 0-4.53-0.561-6.471-1.555l0.080 0.037c-2.093-1.053-4.56-3.563-5.908-5.48 0 0-4.667 12.953 7.333 18.287-2.442 1.677-5.462 2.679-8.716 2.679-0.217 0-0.433-0.004-0.648-0.013l0.031 0.001c12 6.667 26.667 0 26.667-15.333 0-0.372-0.037-0.741-0.107-1.107 1.323-1.305 2.293-2.963 2.758-4.822l0.015-0.071z"></path>
</symbol>

<symbol id="iconmail" viewBox="0 0 32 32">
<title>mail</title>
<path stroke-linejoin="round" stroke-linecap="round" stroke-miterlimit="4" stroke-width="2.6667" d="M5.333 5.333h21.333c1.467 0 2.667 1.2 2.667 2.667v16c0 1.467-1.2 2.667-2.667 2.667h-21.333c-1.467 0-2.667-1.2-2.667-2.667v-16c0-1.467 1.2-2.667 2.667-2.667z"></path>
<path stroke-linejoin="round" stroke-linecap="round" stroke-miterlimit="4" stroke-width="2.6667" d="M29.333 8l-13.333 9.333-13.333-9.333"></path>
</symbol>

<symbol id="iconuser" viewBox="0 0 32 32">
<title>user</title>
<path stroke-linejoin="round" stroke-linecap="round" stroke-miterlimit="4" stroke-width="2.6667" d="M26.667 28v-2.667c0-1.415-0.562-2.771-1.562-3.771s-2.357-1.562-3.771-1.562h-10.667c-1.415 0-2.771 0.562-3.771 1.562s-1.562 2.357-1.562 3.771v2.667"></path>
<path stroke-linejoin="round" stroke-linecap="round" stroke-miterlimit="4" stroke-width="2.6667" d="M16 14.667c2.945 0 5.333-2.388 5.333-5.333s-2.388-5.333-5.333-5.333c-2.946 0-5.333 2.388-5.333 5.333s2.388 5.333 5.333 5.333z"></path>
</symbol>

<symbol id="iconphone" viewBox="0 0 32 32">
<title>phone</title>
<path stroke-linejoin="round" stroke-linecap="round" stroke-miterlimit="4" stroke-width="2.6667" d="M29.333 22.56v4c0.001 0.371-0.075 0.739-0.223 1.079s-0.367 0.646-0.641 0.897c-0.274 0.251-0.597 0.442-0.948 0.561s-0.725 0.163-1.094 0.13c-4.103-0.446-8.044-1.848-11.507-4.093-3.222-2.047-5.953-4.778-8-8-2.253-3.478-3.656-7.439-4.093-11.56-0.033-0.369 0.010-0.74 0.129-1.091s0.308-0.673 0.558-0.947c0.25-0.273 0.553-0.492 0.892-0.641s0.705-0.227 1.075-0.227h4c0.647-0.006 1.274 0.223 1.765 0.645s0.811 1.008 0.902 1.649c0.169 1.28 0.482 2.537 0.933 3.747 0.179 0.477 0.218 0.996 0.112 1.495s-0.353 0.956-0.712 1.319l-1.693 1.693c1.898 3.338 4.662 6.102 8 8l1.693-1.693c0.362-0.359 0.82-0.606 1.319-0.712s1.017-0.067 1.495 0.112c1.21 0.451 2.467 0.765 3.747 0.933 0.648 0.091 1.239 0.418 1.662 0.917s0.647 1.136 0.631 1.79z"></path>
</symbol>

<symbol id="iconCheckmark" viewBox="0 0 32 32">
<title>Checkmark</title>
<path stroke-linejoin="miter" stroke-linecap="butt" stroke-miterlimit="4" stroke-width="1.6" d="M9.6 0.8h12.8c4.86 0 8.8 3.94 8.8 8.8v12.8c0 4.86-3.94 8.8-8.8 8.8h-12.8c-4.86 0-8.8-3.94-8.8-8.8v-12.8c0-4.86 3.94-8.8 8.8-8.8z"></path>
</symbol>

<symbol id="icon-x-close" viewBox="0 0 32 32">
<title>x-close</title>
<path stroke-linejoin="round" stroke-linecap="round" stroke-miterlimit="4" stroke-width="2.2857" d="M24 8l-16 16"></path>
<path stroke-linejoin="round" stroke-linecap="round" stroke-miterlimit="4" stroke-width="2.2857" d="M8 8l16 16"></path>
</symbol>

<symbol id="icon-icon" viewBox="0 0 32 32">
<title>icon</title>
<path d="M12.636 31.213c1.395 0 2.449-0.536 3.163-1.607l15.448-23.28c0.257-0.379 0.446-0.753 0.569-1.121 0.123-0.379 0.184-0.742 0.184-1.088 0-0.96-0.335-1.752-1.004-2.377-0.658-0.636-1.473-0.954-2.444-0.954-0.669 0-1.238 0.134-1.707 0.402-0.457 0.257-0.893 0.703-1.305 1.339l-12.971 20.368-6.494-7.782c-0.703-0.815-1.584-1.222-2.644-1.222-0.993 0-1.813 0.318-2.46 0.954s-0.971 1.434-0.971 2.393c0 0.435 0.067 0.848 0.201 1.238 0.145 0.379 0.407 0.775 0.787 1.188l8.619 10.159c0.792 0.926 1.802 1.389 3.029 1.389z"></path>
</symbol>

<symbol id="icon-burger" viewBox="0 0 32 32">
<title>burger</title>
<path stroke-linejoin="round" stroke-linecap="round" stroke-miterlimit="4" stroke-width="2.2857" d="M4 16h24M4 8h24M4 24h24"></path>
</symbol>

</defs>
</svg>
